<mxfile host="app.diagrams.net" modified="2024-07-11T14:16:21.981Z" agent="Mozilla/5.0 (X11; Linux x86_64; rv:126.0) Gecko/20100101 Firefox/126.0" version="24.6.4" etag="fa6zgQWt0fPX2gDxIhKd" type="github">
  <diagram name="Seite-1" id="FlMowra1iNTKr1tadKFF">
    <mxGraphModel>
      <root>
        <mxCell id="0" />
        <mxCell id="1" parent="0" />
      </root>
    </mxGraphModel>
  </diagram>
</mxfile>
